G04 #@! TF.GenerationSoftware,KiCad,Pcbnew,5.1.7-a382d34a8~87~ubuntu18.04.1*
G04 #@! TF.CreationDate,2021-01-18T08:48:31-08:00*
G04 #@! TF.ProjectId,ph_feather_wing,70685f66-6561-4746-9865-725f77696e67,rev?*
G04 #@! TF.SameCoordinates,Original*
G04 #@! TF.FileFunction,Legend,Top*
G04 #@! TF.FilePolarity,Positive*
%FSLAX46Y46*%
G04 Gerber Fmt 4.6, Leading zero omitted, Abs format (unit mm)*
G04 Created by KiCad (PCBNEW 5.1.7-a382d34a8~87~ubuntu18.04.1) date 2021-01-18 08:48:31*
%MOMM*%
%LPD*%
G01*
G04 APERTURE LIST*
%ADD10C,0.203200*%
%ADD11C,0.150000*%
%ADD12C,0.381000*%
%ADD13C,0.120000*%
%ADD14C,0.152400*%
G04 APERTURE END LIST*
D10*
X79362904Y-93218000D02*
X79266142Y-93169619D01*
X79121000Y-93169619D01*
X78975857Y-93218000D01*
X78879095Y-93314761D01*
X78830714Y-93411523D01*
X78782333Y-93605047D01*
X78782333Y-93750190D01*
X78830714Y-93943714D01*
X78879095Y-94040476D01*
X78975857Y-94137238D01*
X79121000Y-94185619D01*
X79217761Y-94185619D01*
X79362904Y-94137238D01*
X79411285Y-94088857D01*
X79411285Y-93750190D01*
X79217761Y-93750190D01*
X79846714Y-94185619D02*
X79846714Y-93169619D01*
X80427285Y-94185619D01*
X80427285Y-93169619D01*
X80911095Y-94185619D02*
X80911095Y-93169619D01*
X81153000Y-93169619D01*
X81298142Y-93218000D01*
X81394904Y-93314761D01*
X81443285Y-93411523D01*
X81491666Y-93605047D01*
X81491666Y-93750190D01*
X81443285Y-93943714D01*
X81394904Y-94040476D01*
X81298142Y-94137238D01*
X81153000Y-94185619D01*
X80911095Y-94185619D01*
X75069095Y-93169619D02*
X75698047Y-93169619D01*
X75359380Y-93556666D01*
X75504523Y-93556666D01*
X75601285Y-93605047D01*
X75649666Y-93653428D01*
X75698047Y-93750190D01*
X75698047Y-93992095D01*
X75649666Y-94088857D01*
X75601285Y-94137238D01*
X75504523Y-94185619D01*
X75214238Y-94185619D01*
X75117476Y-94137238D01*
X75069095Y-94088857D01*
X75988333Y-93169619D02*
X76327000Y-94185619D01*
X76665666Y-93169619D01*
X76907571Y-93169619D02*
X77536523Y-93169619D01*
X77197857Y-93556666D01*
X77343000Y-93556666D01*
X77439761Y-93605047D01*
X77488142Y-93653428D01*
X77536523Y-93750190D01*
X77536523Y-93992095D01*
X77488142Y-94088857D01*
X77439761Y-94137238D01*
X77343000Y-94185619D01*
X77052714Y-94185619D01*
X76955952Y-94137238D01*
X76907571Y-94088857D01*
X70358000Y-94185619D02*
X70358000Y-93169619D01*
X70599904Y-93169619D01*
X70745047Y-93218000D01*
X70841809Y-93314761D01*
X70890190Y-93411523D01*
X70938571Y-93605047D01*
X70938571Y-93750190D01*
X70890190Y-93943714D01*
X70841809Y-94040476D01*
X70745047Y-94137238D01*
X70599904Y-94185619D01*
X70358000Y-94185619D01*
X71325619Y-93895333D02*
X71809428Y-93895333D01*
X71228857Y-94185619D02*
X71567523Y-93169619D01*
X71906190Y-94185619D01*
X72099714Y-93169619D02*
X72680285Y-93169619D01*
X72390000Y-94185619D02*
X72390000Y-93169619D01*
X72970571Y-93895333D02*
X73454380Y-93895333D01*
X72873809Y-94185619D02*
X73212476Y-93169619D01*
X73551142Y-94185619D01*
X77276476Y-89825285D02*
X77276476Y-90841285D01*
X77276476Y-89873666D02*
X77373238Y-89825285D01*
X77566761Y-89825285D01*
X77663523Y-89873666D01*
X77711904Y-89922047D01*
X77760285Y-90018809D01*
X77760285Y-90309095D01*
X77711904Y-90405857D01*
X77663523Y-90454238D01*
X77566761Y-90502619D01*
X77373238Y-90502619D01*
X77276476Y-90454238D01*
X78195714Y-90502619D02*
X78195714Y-89486619D01*
X78195714Y-89970428D02*
X78776285Y-89970428D01*
X78776285Y-90502619D02*
X78776285Y-89486619D01*
X79695523Y-89825285D02*
X79695523Y-90502619D01*
X79453619Y-89438238D02*
X79211714Y-90163952D01*
X79840666Y-90163952D01*
X80953428Y-89438238D02*
X80082571Y-90744523D01*
X81824285Y-90502619D02*
X81243714Y-90502619D01*
X81534000Y-90502619D02*
X81534000Y-89486619D01*
X81437238Y-89631761D01*
X81340476Y-89728523D01*
X81243714Y-89776904D01*
X82453238Y-89486619D02*
X82550000Y-89486619D01*
X82646761Y-89535000D01*
X82695142Y-89583380D01*
X82743523Y-89680142D01*
X82791904Y-89873666D01*
X82791904Y-90115571D01*
X82743523Y-90309095D01*
X82695142Y-90405857D01*
X82646761Y-90454238D01*
X82550000Y-90502619D01*
X82453238Y-90502619D01*
X82356476Y-90454238D01*
X82308095Y-90405857D01*
X82259714Y-90309095D01*
X82211333Y-90115571D01*
X82211333Y-89873666D01*
X82259714Y-89680142D01*
X82308095Y-89583380D01*
X82356476Y-89535000D01*
X82453238Y-89486619D01*
X70394285Y-89825285D02*
X70394285Y-90841285D01*
X70394285Y-89873666D02*
X70491047Y-89825285D01*
X70684571Y-89825285D01*
X70781333Y-89873666D01*
X70829714Y-89922047D01*
X70878095Y-90018809D01*
X70878095Y-90309095D01*
X70829714Y-90405857D01*
X70781333Y-90454238D01*
X70684571Y-90502619D01*
X70491047Y-90502619D01*
X70394285Y-90454238D01*
X71313523Y-90502619D02*
X71313523Y-89486619D01*
X71313523Y-89970428D02*
X71894095Y-89970428D01*
X71894095Y-90502619D02*
X71894095Y-89486619D01*
X72281142Y-89486619D02*
X72958476Y-89486619D01*
X72523047Y-90502619D01*
D11*
X85090000Y-50800000D02*
X67310000Y-50800000D01*
X87630000Y-53340000D02*
X87630000Y-99060000D01*
X85090000Y-101600000D02*
X67310000Y-101600000D01*
X64770000Y-53340000D02*
X64770000Y-99060000D01*
X64770000Y-53340000D02*
G75*
G02*
X67310000Y-50800000I2540000J0D01*
G01*
X85090000Y-50800000D02*
G75*
G02*
X87630000Y-53340000I0J-2540000D01*
G01*
X87630000Y-99060000D02*
G75*
G02*
X85090000Y-101600000I-2540000J0D01*
G01*
X67310000Y-101600000D02*
G75*
G02*
X64770000Y-99060000I0J2540000D01*
G01*
D12*
X68580000Y-71120000D02*
X83820000Y-71120000D01*
X68580000Y-60960000D02*
X68580000Y-55880000D01*
X68580000Y-55880000D02*
X83820000Y-55880000D01*
X83820000Y-55880000D02*
X83820000Y-60960000D01*
X68580000Y-60960000D02*
X68580000Y-71120000D01*
X83820000Y-60960000D02*
X83820000Y-71120000D01*
X70401180Y-94642940D02*
X70401180Y-101445060D01*
X70401180Y-101445060D02*
X81998820Y-101445060D01*
X81998820Y-101445060D02*
X81998820Y-94642940D01*
X81998820Y-94642940D02*
X70401180Y-94642940D01*
D13*
X69848000Y-79147580D02*
X69848000Y-78866420D01*
X70868000Y-79147580D02*
X70868000Y-78866420D01*
X70868000Y-83325580D02*
X70868000Y-83044420D01*
X69848000Y-83325580D02*
X69848000Y-83044420D01*
X76198000Y-83325580D02*
X76198000Y-83044420D01*
X77218000Y-83325580D02*
X77218000Y-83044420D01*
X82281500Y-79104258D02*
X82281500Y-78629742D01*
X83326500Y-79104258D02*
X83326500Y-78629742D01*
X83326500Y-74913258D02*
X83326500Y-74438742D01*
X82281500Y-74913258D02*
X82281500Y-74438742D01*
X70880500Y-74913258D02*
X70880500Y-74438742D01*
X69835500Y-74913258D02*
X69835500Y-74438742D01*
X83326500Y-82947742D02*
X83326500Y-83422258D01*
X82281500Y-82947742D02*
X82281500Y-83422258D01*
X69558000Y-85933000D02*
X73698000Y-85933000D01*
X73698000Y-88773000D02*
X73698000Y-89073000D01*
X73698000Y-89073000D02*
X69558000Y-89073000D01*
X69558000Y-86233000D02*
X69558000Y-85933000D01*
X69558000Y-89073000D02*
X69558000Y-88773000D01*
X73698000Y-85933000D02*
X73698000Y-86233000D01*
X82334000Y-85933000D02*
X82334000Y-86233000D01*
X78194000Y-89073000D02*
X78194000Y-88773000D01*
X78194000Y-86233000D02*
X78194000Y-85933000D01*
X82334000Y-89073000D02*
X78194000Y-89073000D01*
X82334000Y-88773000D02*
X82334000Y-89073000D01*
X78194000Y-85933000D02*
X82334000Y-85933000D01*
X76581000Y-74783000D02*
X74631000Y-74783000D01*
X76581000Y-74783000D02*
X78531000Y-74783000D01*
X76581000Y-79903000D02*
X74631000Y-79903000D01*
X76581000Y-79903000D02*
X80031000Y-79903000D01*
D14*
X75946000Y-62320714D02*
X75946000Y-62865000D01*
X75909714Y-62973857D01*
X75837142Y-63046428D01*
X75728285Y-63082714D01*
X75655714Y-63082714D01*
X76708000Y-63082714D02*
X76272571Y-63082714D01*
X76490285Y-63082714D02*
X76490285Y-62320714D01*
X76417714Y-62429571D01*
X76345142Y-62502142D01*
X76272571Y-62538428D01*
X82804000Y-94832714D02*
X82804000Y-95377000D01*
X82767714Y-95485857D01*
X82695142Y-95558428D01*
X82586285Y-95594714D01*
X82513714Y-95594714D01*
X83130571Y-94905285D02*
X83166857Y-94869000D01*
X83239428Y-94832714D01*
X83420857Y-94832714D01*
X83493428Y-94869000D01*
X83529714Y-94905285D01*
X83566000Y-94977857D01*
X83566000Y-95050428D01*
X83529714Y-95159285D01*
X83094285Y-95594714D01*
X83566000Y-95594714D01*
X69360142Y-79134000D02*
X69396428Y-79170285D01*
X69432714Y-79279142D01*
X69432714Y-79351714D01*
X69396428Y-79460571D01*
X69323857Y-79533142D01*
X69251285Y-79569428D01*
X69106142Y-79605714D01*
X68997285Y-79605714D01*
X68852142Y-79569428D01*
X68779571Y-79533142D01*
X68707000Y-79460571D01*
X68670714Y-79351714D01*
X68670714Y-79279142D01*
X68707000Y-79170285D01*
X68743285Y-79134000D01*
X69432714Y-78408285D02*
X69432714Y-78843714D01*
X69432714Y-78626000D02*
X68670714Y-78626000D01*
X68779571Y-78698571D01*
X68852142Y-78771142D01*
X68888428Y-78843714D01*
X71972714Y-79460571D02*
X71972714Y-79896000D01*
X71972714Y-79678285D02*
X71210714Y-79678285D01*
X71319571Y-79750857D01*
X71392142Y-79823428D01*
X71428428Y-79896000D01*
X71464714Y-78807428D02*
X71972714Y-78807428D01*
X71464714Y-79134000D02*
X71863857Y-79134000D01*
X71936428Y-79097714D01*
X71972714Y-79025142D01*
X71972714Y-78916285D01*
X71936428Y-78843714D01*
X71900142Y-78807428D01*
X71573571Y-78190571D02*
X71573571Y-78444571D01*
X71972714Y-78444571D02*
X71210714Y-78444571D01*
X71210714Y-78081714D01*
X69360142Y-83312000D02*
X69396428Y-83348285D01*
X69432714Y-83457142D01*
X69432714Y-83529714D01*
X69396428Y-83638571D01*
X69323857Y-83711142D01*
X69251285Y-83747428D01*
X69106142Y-83783714D01*
X68997285Y-83783714D01*
X68852142Y-83747428D01*
X68779571Y-83711142D01*
X68707000Y-83638571D01*
X68670714Y-83529714D01*
X68670714Y-83457142D01*
X68707000Y-83348285D01*
X68743285Y-83312000D01*
X68743285Y-83021714D02*
X68707000Y-82985428D01*
X68670714Y-82912857D01*
X68670714Y-82731428D01*
X68707000Y-82658857D01*
X68743285Y-82622571D01*
X68815857Y-82586285D01*
X68888428Y-82586285D01*
X68997285Y-82622571D01*
X69432714Y-83058000D01*
X69432714Y-82586285D01*
X71210714Y-84436857D02*
X71210714Y-84364285D01*
X71247000Y-84291714D01*
X71283285Y-84255428D01*
X71355857Y-84219142D01*
X71501000Y-84182857D01*
X71682428Y-84182857D01*
X71827571Y-84219142D01*
X71900142Y-84255428D01*
X71936428Y-84291714D01*
X71972714Y-84364285D01*
X71972714Y-84436857D01*
X71936428Y-84509428D01*
X71900142Y-84545714D01*
X71827571Y-84582000D01*
X71682428Y-84618285D01*
X71501000Y-84618285D01*
X71355857Y-84582000D01*
X71283285Y-84545714D01*
X71247000Y-84509428D01*
X71210714Y-84436857D01*
X71900142Y-83856285D02*
X71936428Y-83820000D01*
X71972714Y-83856285D01*
X71936428Y-83892571D01*
X71900142Y-83856285D01*
X71972714Y-83856285D01*
X71972714Y-83094285D02*
X71972714Y-83529714D01*
X71972714Y-83312000D02*
X71210714Y-83312000D01*
X71319571Y-83384571D01*
X71392142Y-83457142D01*
X71428428Y-83529714D01*
X71464714Y-82441142D02*
X71972714Y-82441142D01*
X71464714Y-82767714D02*
X71863857Y-82767714D01*
X71936428Y-82731428D01*
X71972714Y-82658857D01*
X71972714Y-82550000D01*
X71936428Y-82477428D01*
X71900142Y-82441142D01*
X71573571Y-81824285D02*
X71573571Y-82078285D01*
X71972714Y-82078285D02*
X71210714Y-82078285D01*
X71210714Y-81715428D01*
X75710142Y-83312000D02*
X75746428Y-83348285D01*
X75782714Y-83457142D01*
X75782714Y-83529714D01*
X75746428Y-83638571D01*
X75673857Y-83711142D01*
X75601285Y-83747428D01*
X75456142Y-83783714D01*
X75347285Y-83783714D01*
X75202142Y-83747428D01*
X75129571Y-83711142D01*
X75057000Y-83638571D01*
X75020714Y-83529714D01*
X75020714Y-83457142D01*
X75057000Y-83348285D01*
X75093285Y-83312000D01*
X75020714Y-83058000D02*
X75020714Y-82586285D01*
X75311000Y-82840285D01*
X75311000Y-82731428D01*
X75347285Y-82658857D01*
X75383571Y-82622571D01*
X75456142Y-82586285D01*
X75637571Y-82586285D01*
X75710142Y-82622571D01*
X75746428Y-82658857D01*
X75782714Y-82731428D01*
X75782714Y-82949142D01*
X75746428Y-83021714D01*
X75710142Y-83058000D01*
X78322714Y-83638571D02*
X78322714Y-84074000D01*
X78322714Y-83856285D02*
X77560714Y-83856285D01*
X77669571Y-83928857D01*
X77742142Y-84001428D01*
X77778428Y-84074000D01*
X77814714Y-82985428D02*
X78322714Y-82985428D01*
X77814714Y-83312000D02*
X78213857Y-83312000D01*
X78286428Y-83275714D01*
X78322714Y-83203142D01*
X78322714Y-83094285D01*
X78286428Y-83021714D01*
X78250142Y-82985428D01*
X77923571Y-82368571D02*
X77923571Y-82622571D01*
X78322714Y-82622571D02*
X77560714Y-82622571D01*
X77560714Y-82259714D01*
X82005714Y-78994000D02*
X81642857Y-79248000D01*
X82005714Y-79429428D02*
X81243714Y-79429428D01*
X81243714Y-79139142D01*
X81280000Y-79066571D01*
X81316285Y-79030285D01*
X81388857Y-78994000D01*
X81497714Y-78994000D01*
X81570285Y-79030285D01*
X81606571Y-79066571D01*
X81642857Y-79139142D01*
X81642857Y-79429428D01*
X82005714Y-78268285D02*
X82005714Y-78703714D01*
X82005714Y-78486000D02*
X81243714Y-78486000D01*
X81352571Y-78558571D01*
X81425142Y-78631142D01*
X81461428Y-78703714D01*
X84418714Y-79520142D02*
X84418714Y-79955571D01*
X84418714Y-79737857D02*
X83656714Y-79737857D01*
X83765571Y-79810428D01*
X83838142Y-79883000D01*
X83874428Y-79955571D01*
X83656714Y-79048428D02*
X83656714Y-78975857D01*
X83693000Y-78903285D01*
X83729285Y-78867000D01*
X83801857Y-78830714D01*
X83947000Y-78794428D01*
X84128428Y-78794428D01*
X84273571Y-78830714D01*
X84346142Y-78867000D01*
X84382428Y-78903285D01*
X84418714Y-78975857D01*
X84418714Y-79048428D01*
X84382428Y-79121000D01*
X84346142Y-79157285D01*
X84273571Y-79193571D01*
X84128428Y-79229857D01*
X83947000Y-79229857D01*
X83801857Y-79193571D01*
X83729285Y-79157285D01*
X83693000Y-79121000D01*
X83656714Y-79048428D01*
X84418714Y-78467857D02*
X83656714Y-78467857D01*
X84418714Y-78032428D02*
X83983285Y-78359000D01*
X83656714Y-78032428D02*
X84092142Y-78467857D01*
X82005714Y-74803000D02*
X81642857Y-75057000D01*
X82005714Y-75238428D02*
X81243714Y-75238428D01*
X81243714Y-74948142D01*
X81280000Y-74875571D01*
X81316285Y-74839285D01*
X81388857Y-74803000D01*
X81497714Y-74803000D01*
X81570285Y-74839285D01*
X81606571Y-74875571D01*
X81642857Y-74948142D01*
X81642857Y-75238428D01*
X81316285Y-74512714D02*
X81280000Y-74476428D01*
X81243714Y-74403857D01*
X81243714Y-74222428D01*
X81280000Y-74149857D01*
X81316285Y-74113571D01*
X81388857Y-74077285D01*
X81461428Y-74077285D01*
X81570285Y-74113571D01*
X82005714Y-74549000D01*
X82005714Y-74077285D01*
X84418714Y-75202142D02*
X84418714Y-75637571D01*
X84418714Y-75419857D02*
X83656714Y-75419857D01*
X83765571Y-75492428D01*
X83838142Y-75565000D01*
X83874428Y-75637571D01*
X83656714Y-74730428D02*
X83656714Y-74657857D01*
X83693000Y-74585285D01*
X83729285Y-74549000D01*
X83801857Y-74512714D01*
X83947000Y-74476428D01*
X84128428Y-74476428D01*
X84273571Y-74512714D01*
X84346142Y-74549000D01*
X84382428Y-74585285D01*
X84418714Y-74657857D01*
X84418714Y-74730428D01*
X84382428Y-74803000D01*
X84346142Y-74839285D01*
X84273571Y-74875571D01*
X84128428Y-74911857D01*
X83947000Y-74911857D01*
X83801857Y-74875571D01*
X83729285Y-74839285D01*
X83693000Y-74803000D01*
X83656714Y-74730428D01*
X84418714Y-74149857D02*
X83656714Y-74149857D01*
X84418714Y-73714428D02*
X83983285Y-74041000D01*
X83656714Y-73714428D02*
X84092142Y-74149857D01*
X69432714Y-74803000D02*
X69069857Y-75057000D01*
X69432714Y-75238428D02*
X68670714Y-75238428D01*
X68670714Y-74948142D01*
X68707000Y-74875571D01*
X68743285Y-74839285D01*
X68815857Y-74803000D01*
X68924714Y-74803000D01*
X68997285Y-74839285D01*
X69033571Y-74875571D01*
X69069857Y-74948142D01*
X69069857Y-75238428D01*
X68670714Y-74549000D02*
X68670714Y-74077285D01*
X68961000Y-74331285D01*
X68961000Y-74222428D01*
X68997285Y-74149857D01*
X69033571Y-74113571D01*
X69106142Y-74077285D01*
X69287571Y-74077285D01*
X69360142Y-74113571D01*
X69396428Y-74149857D01*
X69432714Y-74222428D01*
X69432714Y-74440142D01*
X69396428Y-74512714D01*
X69360142Y-74549000D01*
X71972714Y-75129571D02*
X71972714Y-75565000D01*
X71972714Y-75347285D02*
X71210714Y-75347285D01*
X71319571Y-75419857D01*
X71392142Y-75492428D01*
X71428428Y-75565000D01*
X71210714Y-74657857D02*
X71210714Y-74585285D01*
X71247000Y-74512714D01*
X71283285Y-74476428D01*
X71355857Y-74440142D01*
X71501000Y-74403857D01*
X71682428Y-74403857D01*
X71827571Y-74440142D01*
X71900142Y-74476428D01*
X71936428Y-74512714D01*
X71972714Y-74585285D01*
X71972714Y-74657857D01*
X71936428Y-74730428D01*
X71900142Y-74766714D01*
X71827571Y-74803000D01*
X71682428Y-74839285D01*
X71501000Y-74839285D01*
X71355857Y-74803000D01*
X71283285Y-74766714D01*
X71247000Y-74730428D01*
X71210714Y-74657857D01*
X71972714Y-74077285D02*
X71210714Y-74077285D01*
X71682428Y-74004714D02*
X71972714Y-73787000D01*
X71464714Y-73787000D02*
X71755000Y-74077285D01*
X84418714Y-83312000D02*
X84055857Y-83566000D01*
X84418714Y-83747428D02*
X83656714Y-83747428D01*
X83656714Y-83457142D01*
X83693000Y-83384571D01*
X83729285Y-83348285D01*
X83801857Y-83312000D01*
X83910714Y-83312000D01*
X83983285Y-83348285D01*
X84019571Y-83384571D01*
X84055857Y-83457142D01*
X84055857Y-83747428D01*
X83910714Y-82658857D02*
X84418714Y-82658857D01*
X83620428Y-82840285D02*
X84164714Y-83021714D01*
X84164714Y-82550000D01*
X81370714Y-83892571D02*
X81878714Y-83892571D01*
X81080428Y-84074000D02*
X81624714Y-84255428D01*
X81624714Y-83783714D01*
X81806142Y-83493428D02*
X81842428Y-83457142D01*
X81878714Y-83493428D01*
X81842428Y-83529714D01*
X81806142Y-83493428D01*
X81878714Y-83493428D01*
X81116714Y-83203142D02*
X81116714Y-82695142D01*
X81878714Y-83021714D01*
X81878714Y-82404857D02*
X81116714Y-82404857D01*
X81588428Y-82332285D02*
X81878714Y-82114571D01*
X81370714Y-82114571D02*
X81661000Y-82404857D01*
X68634428Y-88519000D02*
X68670714Y-88410142D01*
X68670714Y-88228714D01*
X68634428Y-88156142D01*
X68598142Y-88119857D01*
X68525571Y-88083571D01*
X68453000Y-88083571D01*
X68380428Y-88119857D01*
X68344142Y-88156142D01*
X68307857Y-88228714D01*
X68271571Y-88373857D01*
X68235285Y-88446428D01*
X68199000Y-88482714D01*
X68126428Y-88519000D01*
X68053857Y-88519000D01*
X67981285Y-88482714D01*
X67945000Y-88446428D01*
X67908714Y-88373857D01*
X67908714Y-88192428D01*
X67945000Y-88083571D01*
X67908714Y-87829571D02*
X68670714Y-87648142D01*
X68126428Y-87503000D01*
X68670714Y-87357857D01*
X67908714Y-87176428D01*
X68670714Y-86487000D02*
X68670714Y-86922428D01*
X68670714Y-86704714D02*
X67908714Y-86704714D01*
X68017571Y-86777285D01*
X68090142Y-86849857D01*
X68126428Y-86922428D01*
X77270428Y-88646000D02*
X77306714Y-88537142D01*
X77306714Y-88355714D01*
X77270428Y-88283142D01*
X77234142Y-88246857D01*
X77161571Y-88210571D01*
X77089000Y-88210571D01*
X77016428Y-88246857D01*
X76980142Y-88283142D01*
X76943857Y-88355714D01*
X76907571Y-88500857D01*
X76871285Y-88573428D01*
X76835000Y-88609714D01*
X76762428Y-88646000D01*
X76689857Y-88646000D01*
X76617285Y-88609714D01*
X76581000Y-88573428D01*
X76544714Y-88500857D01*
X76544714Y-88319428D01*
X76581000Y-88210571D01*
X76544714Y-87956571D02*
X77306714Y-87775142D01*
X76762428Y-87630000D01*
X77306714Y-87484857D01*
X76544714Y-87303428D01*
X76617285Y-87049428D02*
X76581000Y-87013142D01*
X76544714Y-86940571D01*
X76544714Y-86759142D01*
X76581000Y-86686571D01*
X76617285Y-86650285D01*
X76689857Y-86614000D01*
X76762428Y-86614000D01*
X76871285Y-86650285D01*
X77306714Y-87085714D01*
X77306714Y-86614000D01*
X76000428Y-80227714D02*
X76000428Y-80844571D01*
X76036714Y-80917142D01*
X76073000Y-80953428D01*
X76145571Y-80989714D01*
X76290714Y-80989714D01*
X76363285Y-80953428D01*
X76399571Y-80917142D01*
X76435857Y-80844571D01*
X76435857Y-80227714D01*
X77197857Y-80989714D02*
X76762428Y-80989714D01*
X76980142Y-80989714D02*
X76980142Y-80227714D01*
X76907571Y-80336571D01*
X76835000Y-80409142D01*
X76762428Y-80445428D01*
X74113571Y-74512714D02*
X74113571Y-73750714D01*
X74367571Y-74295000D01*
X74621571Y-73750714D01*
X74621571Y-74512714D01*
X75419857Y-74440142D02*
X75383571Y-74476428D01*
X75274714Y-74512714D01*
X75202142Y-74512714D01*
X75093285Y-74476428D01*
X75020714Y-74403857D01*
X74984428Y-74331285D01*
X74948142Y-74186142D01*
X74948142Y-74077285D01*
X74984428Y-73932142D01*
X75020714Y-73859571D01*
X75093285Y-73787000D01*
X75202142Y-73750714D01*
X75274714Y-73750714D01*
X75383571Y-73787000D01*
X75419857Y-73823285D01*
X75746428Y-74512714D02*
X75746428Y-73750714D01*
X76036714Y-73750714D01*
X76109285Y-73787000D01*
X76145571Y-73823285D01*
X76181857Y-73895857D01*
X76181857Y-74004714D01*
X76145571Y-74077285D01*
X76109285Y-74113571D01*
X76036714Y-74149857D01*
X75746428Y-74149857D01*
X76835000Y-73750714D02*
X76689857Y-73750714D01*
X76617285Y-73787000D01*
X76581000Y-73823285D01*
X76508428Y-73932142D01*
X76472142Y-74077285D01*
X76472142Y-74367571D01*
X76508428Y-74440142D01*
X76544714Y-74476428D01*
X76617285Y-74512714D01*
X76762428Y-74512714D01*
X76835000Y-74476428D01*
X76871285Y-74440142D01*
X76907571Y-74367571D01*
X76907571Y-74186142D01*
X76871285Y-74113571D01*
X76835000Y-74077285D01*
X76762428Y-74041000D01*
X76617285Y-74041000D01*
X76544714Y-74077285D01*
X76508428Y-74113571D01*
X76472142Y-74186142D01*
X77379285Y-73750714D02*
X77451857Y-73750714D01*
X77524428Y-73787000D01*
X77560714Y-73823285D01*
X77597000Y-73895857D01*
X77633285Y-74041000D01*
X77633285Y-74222428D01*
X77597000Y-74367571D01*
X77560714Y-74440142D01*
X77524428Y-74476428D01*
X77451857Y-74512714D01*
X77379285Y-74512714D01*
X77306714Y-74476428D01*
X77270428Y-74440142D01*
X77234142Y-74367571D01*
X77197857Y-74222428D01*
X77197857Y-74041000D01*
X77234142Y-73895857D01*
X77270428Y-73823285D01*
X77306714Y-73787000D01*
X77379285Y-73750714D01*
X78105000Y-73750714D02*
X78177571Y-73750714D01*
X78250142Y-73787000D01*
X78286428Y-73823285D01*
X78322714Y-73895857D01*
X78359000Y-74041000D01*
X78359000Y-74222428D01*
X78322714Y-74367571D01*
X78286428Y-74440142D01*
X78250142Y-74476428D01*
X78177571Y-74512714D01*
X78105000Y-74512714D01*
X78032428Y-74476428D01*
X77996142Y-74440142D01*
X77959857Y-74367571D01*
X77923571Y-74222428D01*
X77923571Y-74041000D01*
X77959857Y-73895857D01*
X77996142Y-73823285D01*
X78032428Y-73787000D01*
X78105000Y-73750714D01*
X78649285Y-73823285D02*
X78685571Y-73787000D01*
X78758142Y-73750714D01*
X78939571Y-73750714D01*
X79012142Y-73787000D01*
X79048428Y-73823285D01*
X79084714Y-73895857D01*
X79084714Y-73968428D01*
X79048428Y-74077285D01*
X78613000Y-74512714D01*
X79084714Y-74512714D01*
M02*
