G04 #@! TF.GenerationSoftware,KiCad,Pcbnew,5.1.7-a382d34a8~87~ubuntu18.04.1*
G04 #@! TF.CreationDate,2021-01-18T08:48:31-08:00*
G04 #@! TF.ProjectId,ph_feather_wing,70685f66-6561-4746-9865-725f77696e67,rev?*
G04 #@! TF.SameCoordinates,Original*
G04 #@! TF.FileFunction,Copper,L2,Bot*
G04 #@! TF.FilePolarity,Positive*
%FSLAX46Y46*%
G04 Gerber Fmt 4.6, Leading zero omitted, Abs format (unit mm)*
G04 Created by KiCad (PCBNEW 5.1.7-a382d34a8~87~ubuntu18.04.1) date 2021-01-18 08:48:31*
%MOMM*%
%LPD*%
G01*
G04 APERTURE LIST*
G04 #@! TA.AperFunction,WasherPad*
%ADD10C,3.048000*%
G04 #@! TD*
G04 #@! TA.AperFunction,ComponentPad*
%ADD11C,3.048000*%
G04 #@! TD*
G04 #@! TA.AperFunction,ComponentPad*
%ADD12C,1.778000*%
G04 #@! TD*
G04 #@! TA.AperFunction,ComponentPad*
%ADD13R,1.651000X1.651000*%
G04 #@! TD*
G04 #@! TA.AperFunction,ComponentPad*
%ADD14C,1.651000*%
G04 #@! TD*
G04 #@! TA.AperFunction,ComponentPad*
%ADD15C,2.000000*%
G04 #@! TD*
G04 #@! TA.AperFunction,ComponentPad*
%ADD16R,2.000000X2.000000*%
G04 #@! TD*
G04 #@! TA.AperFunction,Conductor*
%ADD17C,0.250000*%
G04 #@! TD*
G04 APERTURE END LIST*
D10*
X67310000Y-53340000D03*
X85090000Y-53340000D03*
D11*
X85090000Y-99060000D03*
X67310000Y-99060000D03*
D12*
X66040000Y-57150000D03*
X66040000Y-59690000D03*
X66040000Y-62230000D03*
X66040000Y-64770000D03*
X66040000Y-67310000D03*
X66040000Y-69850000D03*
X66040000Y-72390000D03*
X66040000Y-74930000D03*
X66040000Y-77470000D03*
X66040000Y-80010000D03*
X66040000Y-82550000D03*
X66040000Y-85090000D03*
X86360000Y-95250000D03*
X86360000Y-92710000D03*
X86360000Y-90170000D03*
X86360000Y-87630000D03*
X86360000Y-85090000D03*
X86360000Y-82550000D03*
X86360000Y-80010000D03*
X86360000Y-77470000D03*
X86360000Y-74930000D03*
X86360000Y-72390000D03*
X86360000Y-69850000D03*
X86360000Y-67310000D03*
X86360000Y-64770000D03*
X86360000Y-62230000D03*
X86360000Y-59690000D03*
X86360000Y-57150000D03*
D11*
X71120000Y-63500000D03*
X81280000Y-63500000D03*
D13*
X76200000Y-68580000D03*
D14*
X73660000Y-68580000D03*
D15*
X76200000Y-98044000D03*
D16*
X72699880Y-98044000D03*
D15*
X79700120Y-98044000D03*
D17*
X76200000Y-98044000D02*
X81534000Y-92710000D01*
X81534000Y-92710000D02*
X86360000Y-92710000D01*
X72699900Y-98044000D02*
X72699900Y-79049900D01*
X72699900Y-79049900D02*
X66040000Y-72390000D01*
M02*
