M48
; DRILL file {KiCad 5.1.7-a382d34a8~87~ubuntu18.04.1} date Mon Jan 18 08:48:37 2021
; FORMAT={-:-/ absolute / inch / decimal}
; #@! TF.CreationDate,2021-01-18T08:48:37-08:00
; #@! TF.GenerationSoftware,Kicad,Pcbnew,5.1.7-a382d34a8~87~ubuntu18.04.1
; #@! TF.FileFunction,Plated,1,2,PTH
FMAT,2
INCH
T1C0.0354
T2C0.0420
T3C0.0472
T4C0.0795
T5C0.1000
%
G90
G05
T1
X2.9Y-2.7
X3.0Y-2.7
T2
X2.6Y-2.25
X2.6Y-2.35
X2.6Y-2.45
X2.6Y-2.55
X2.6Y-2.65
X2.6Y-2.75
X2.6Y-2.85
X2.6Y-2.95
X2.6Y-3.05
X2.6Y-3.15
X2.6Y-3.25
X2.6Y-3.35
X3.4Y-2.25
X3.4Y-2.35
X3.4Y-2.45
X3.4Y-2.55
X3.4Y-2.65
X3.4Y-2.75
X3.4Y-2.85
X3.4Y-2.95
X3.4Y-3.05
X3.4Y-3.15
X3.4Y-3.25
X3.4Y-3.35
X3.4Y-3.45
X3.4Y-3.55
X3.4Y-3.65
X3.4Y-3.75
T3
X2.8622Y-3.86
X3.0Y-3.86
X3.1378Y-3.86
T4
X2.8Y-2.5
X3.2Y-2.5
T5
X2.65Y-3.9
X3.35Y-3.9
T0
M30
