G04 #@! TF.GenerationSoftware,KiCad,Pcbnew,5.1.7-a382d34a8~87~ubuntu18.04.1*
G04 #@! TF.CreationDate,2021-01-18T08:48:31-08:00*
G04 #@! TF.ProjectId,ph_feather_wing,70685f66-6561-4746-9865-725f77696e67,rev?*
G04 #@! TF.SameCoordinates,Original*
G04 #@! TF.FileFunction,Paste,Top*
G04 #@! TF.FilePolarity,Positive*
%FSLAX46Y46*%
G04 Gerber Fmt 4.6, Leading zero omitted, Abs format (unit mm)*
G04 Created by KiCad (PCBNEW 5.1.7-a382d34a8~87~ubuntu18.04.1) date 2021-01-18 08:48:31*
%MOMM*%
%LPD*%
G01*
G04 APERTURE LIST*
G04 APERTURE END LIST*
G36*
G01*
X70608000Y-80232000D02*
X70108000Y-80232000D01*
G75*
G02*
X69883000Y-80007000I0J225000D01*
G01*
X69883000Y-79557000D01*
G75*
G02*
X70108000Y-79332000I225000J0D01*
G01*
X70608000Y-79332000D01*
G75*
G02*
X70833000Y-79557000I0J-225000D01*
G01*
X70833000Y-80007000D01*
G75*
G02*
X70608000Y-80232000I-225000J0D01*
G01*
G37*
G36*
G01*
X70608000Y-78682000D02*
X70108000Y-78682000D01*
G75*
G02*
X69883000Y-78457000I0J225000D01*
G01*
X69883000Y-78007000D01*
G75*
G02*
X70108000Y-77782000I225000J0D01*
G01*
X70608000Y-77782000D01*
G75*
G02*
X70833000Y-78007000I0J-225000D01*
G01*
X70833000Y-78457000D01*
G75*
G02*
X70608000Y-78682000I-225000J0D01*
G01*
G37*
G36*
G01*
X70608000Y-82860000D02*
X70108000Y-82860000D01*
G75*
G02*
X69883000Y-82635000I0J225000D01*
G01*
X69883000Y-82185000D01*
G75*
G02*
X70108000Y-81960000I225000J0D01*
G01*
X70608000Y-81960000D01*
G75*
G02*
X70833000Y-82185000I0J-225000D01*
G01*
X70833000Y-82635000D01*
G75*
G02*
X70608000Y-82860000I-225000J0D01*
G01*
G37*
G36*
G01*
X70608000Y-84410000D02*
X70108000Y-84410000D01*
G75*
G02*
X69883000Y-84185000I0J225000D01*
G01*
X69883000Y-83735000D01*
G75*
G02*
X70108000Y-83510000I225000J0D01*
G01*
X70608000Y-83510000D01*
G75*
G02*
X70833000Y-83735000I0J-225000D01*
G01*
X70833000Y-84185000D01*
G75*
G02*
X70608000Y-84410000I-225000J0D01*
G01*
G37*
G36*
G01*
X76958000Y-84410000D02*
X76458000Y-84410000D01*
G75*
G02*
X76233000Y-84185000I0J225000D01*
G01*
X76233000Y-83735000D01*
G75*
G02*
X76458000Y-83510000I225000J0D01*
G01*
X76958000Y-83510000D01*
G75*
G02*
X77183000Y-83735000I0J-225000D01*
G01*
X77183000Y-84185000D01*
G75*
G02*
X76958000Y-84410000I-225000J0D01*
G01*
G37*
G36*
G01*
X76958000Y-82860000D02*
X76458000Y-82860000D01*
G75*
G02*
X76233000Y-82635000I0J225000D01*
G01*
X76233000Y-82185000D01*
G75*
G02*
X76458000Y-81960000I225000J0D01*
G01*
X76958000Y-81960000D01*
G75*
G02*
X77183000Y-82185000I0J-225000D01*
G01*
X77183000Y-82635000D01*
G75*
G02*
X76958000Y-82860000I-225000J0D01*
G01*
G37*
G36*
G01*
X83079000Y-80092000D02*
X82529000Y-80092000D01*
G75*
G02*
X82329000Y-79892000I0J200000D01*
G01*
X82329000Y-79492000D01*
G75*
G02*
X82529000Y-79292000I200000J0D01*
G01*
X83079000Y-79292000D01*
G75*
G02*
X83279000Y-79492000I0J-200000D01*
G01*
X83279000Y-79892000D01*
G75*
G02*
X83079000Y-80092000I-200000J0D01*
G01*
G37*
G36*
G01*
X83079000Y-78442000D02*
X82529000Y-78442000D01*
G75*
G02*
X82329000Y-78242000I0J200000D01*
G01*
X82329000Y-77842000D01*
G75*
G02*
X82529000Y-77642000I200000J0D01*
G01*
X83079000Y-77642000D01*
G75*
G02*
X83279000Y-77842000I0J-200000D01*
G01*
X83279000Y-78242000D01*
G75*
G02*
X83079000Y-78442000I-200000J0D01*
G01*
G37*
G36*
G01*
X83079000Y-74251000D02*
X82529000Y-74251000D01*
G75*
G02*
X82329000Y-74051000I0J200000D01*
G01*
X82329000Y-73651000D01*
G75*
G02*
X82529000Y-73451000I200000J0D01*
G01*
X83079000Y-73451000D01*
G75*
G02*
X83279000Y-73651000I0J-200000D01*
G01*
X83279000Y-74051000D01*
G75*
G02*
X83079000Y-74251000I-200000J0D01*
G01*
G37*
G36*
G01*
X83079000Y-75901000D02*
X82529000Y-75901000D01*
G75*
G02*
X82329000Y-75701000I0J200000D01*
G01*
X82329000Y-75301000D01*
G75*
G02*
X82529000Y-75101000I200000J0D01*
G01*
X83079000Y-75101000D01*
G75*
G02*
X83279000Y-75301000I0J-200000D01*
G01*
X83279000Y-75701000D01*
G75*
G02*
X83079000Y-75901000I-200000J0D01*
G01*
G37*
G36*
G01*
X70633000Y-74251000D02*
X70083000Y-74251000D01*
G75*
G02*
X69883000Y-74051000I0J200000D01*
G01*
X69883000Y-73651000D01*
G75*
G02*
X70083000Y-73451000I200000J0D01*
G01*
X70633000Y-73451000D01*
G75*
G02*
X70833000Y-73651000I0J-200000D01*
G01*
X70833000Y-74051000D01*
G75*
G02*
X70633000Y-74251000I-200000J0D01*
G01*
G37*
G36*
G01*
X70633000Y-75901000D02*
X70083000Y-75901000D01*
G75*
G02*
X69883000Y-75701000I0J200000D01*
G01*
X69883000Y-75301000D01*
G75*
G02*
X70083000Y-75101000I200000J0D01*
G01*
X70633000Y-75101000D01*
G75*
G02*
X70833000Y-75301000I0J-200000D01*
G01*
X70833000Y-75701000D01*
G75*
G02*
X70633000Y-75901000I-200000J0D01*
G01*
G37*
G36*
G01*
X82529000Y-81960000D02*
X83079000Y-81960000D01*
G75*
G02*
X83279000Y-82160000I0J-200000D01*
G01*
X83279000Y-82560000D01*
G75*
G02*
X83079000Y-82760000I-200000J0D01*
G01*
X82529000Y-82760000D01*
G75*
G02*
X82329000Y-82560000I0J200000D01*
G01*
X82329000Y-82160000D01*
G75*
G02*
X82529000Y-81960000I200000J0D01*
G01*
G37*
G36*
G01*
X82529000Y-83610000D02*
X83079000Y-83610000D01*
G75*
G02*
X83279000Y-83810000I0J-200000D01*
G01*
X83279000Y-84210000D01*
G75*
G02*
X83079000Y-84410000I-200000J0D01*
G01*
X82529000Y-84410000D01*
G75*
G02*
X82329000Y-84210000I0J200000D01*
G01*
X82329000Y-83810000D01*
G75*
G02*
X82529000Y-83610000I200000J0D01*
G01*
G37*
G36*
G01*
X73328000Y-88303000D02*
X73328000Y-86703000D01*
G75*
G02*
X73528000Y-86503000I200000J0D01*
G01*
X73928000Y-86503000D01*
G75*
G02*
X74128000Y-86703000I0J-200000D01*
G01*
X74128000Y-88303000D01*
G75*
G02*
X73928000Y-88503000I-200000J0D01*
G01*
X73528000Y-88503000D01*
G75*
G02*
X73328000Y-88303000I0J200000D01*
G01*
G37*
G36*
G01*
X69128000Y-88303000D02*
X69128000Y-86703000D01*
G75*
G02*
X69328000Y-86503000I200000J0D01*
G01*
X69728000Y-86503000D01*
G75*
G02*
X69928000Y-86703000I0J-200000D01*
G01*
X69928000Y-88303000D01*
G75*
G02*
X69728000Y-88503000I-200000J0D01*
G01*
X69328000Y-88503000D01*
G75*
G02*
X69128000Y-88303000I0J200000D01*
G01*
G37*
G36*
G01*
X77764000Y-88303000D02*
X77764000Y-86703000D01*
G75*
G02*
X77964000Y-86503000I200000J0D01*
G01*
X78364000Y-86503000D01*
G75*
G02*
X78564000Y-86703000I0J-200000D01*
G01*
X78564000Y-88303000D01*
G75*
G02*
X78364000Y-88503000I-200000J0D01*
G01*
X77964000Y-88503000D01*
G75*
G02*
X77764000Y-88303000I0J200000D01*
G01*
G37*
G36*
G01*
X81964000Y-88303000D02*
X81964000Y-86703000D01*
G75*
G02*
X82164000Y-86503000I200000J0D01*
G01*
X82564000Y-86503000D01*
G75*
G02*
X82764000Y-86703000I0J-200000D01*
G01*
X82764000Y-88303000D01*
G75*
G02*
X82564000Y-88503000I-200000J0D01*
G01*
X82164000Y-88503000D01*
G75*
G02*
X81964000Y-88303000I0J200000D01*
G01*
G37*
G36*
G01*
X80031000Y-79098000D02*
X80031000Y-79398000D01*
G75*
G02*
X79881000Y-79548000I-150000J0D01*
G01*
X78231000Y-79548000D01*
G75*
G02*
X78081000Y-79398000I0J150000D01*
G01*
X78081000Y-79098000D01*
G75*
G02*
X78231000Y-78948000I150000J0D01*
G01*
X79881000Y-78948000D01*
G75*
G02*
X80031000Y-79098000I0J-150000D01*
G01*
G37*
G36*
G01*
X80031000Y-77828000D02*
X80031000Y-78128000D01*
G75*
G02*
X79881000Y-78278000I-150000J0D01*
G01*
X78231000Y-78278000D01*
G75*
G02*
X78081000Y-78128000I0J150000D01*
G01*
X78081000Y-77828000D01*
G75*
G02*
X78231000Y-77678000I150000J0D01*
G01*
X79881000Y-77678000D01*
G75*
G02*
X80031000Y-77828000I0J-150000D01*
G01*
G37*
G36*
G01*
X80031000Y-76558000D02*
X80031000Y-76858000D01*
G75*
G02*
X79881000Y-77008000I-150000J0D01*
G01*
X78231000Y-77008000D01*
G75*
G02*
X78081000Y-76858000I0J150000D01*
G01*
X78081000Y-76558000D01*
G75*
G02*
X78231000Y-76408000I150000J0D01*
G01*
X79881000Y-76408000D01*
G75*
G02*
X80031000Y-76558000I0J-150000D01*
G01*
G37*
G36*
G01*
X80031000Y-75288000D02*
X80031000Y-75588000D01*
G75*
G02*
X79881000Y-75738000I-150000J0D01*
G01*
X78231000Y-75738000D01*
G75*
G02*
X78081000Y-75588000I0J150000D01*
G01*
X78081000Y-75288000D01*
G75*
G02*
X78231000Y-75138000I150000J0D01*
G01*
X79881000Y-75138000D01*
G75*
G02*
X80031000Y-75288000I0J-150000D01*
G01*
G37*
G36*
G01*
X75081000Y-75288000D02*
X75081000Y-75588000D01*
G75*
G02*
X74931000Y-75738000I-150000J0D01*
G01*
X73281000Y-75738000D01*
G75*
G02*
X73131000Y-75588000I0J150000D01*
G01*
X73131000Y-75288000D01*
G75*
G02*
X73281000Y-75138000I150000J0D01*
G01*
X74931000Y-75138000D01*
G75*
G02*
X75081000Y-75288000I0J-150000D01*
G01*
G37*
G36*
G01*
X75081000Y-76558000D02*
X75081000Y-76858000D01*
G75*
G02*
X74931000Y-77008000I-150000J0D01*
G01*
X73281000Y-77008000D01*
G75*
G02*
X73131000Y-76858000I0J150000D01*
G01*
X73131000Y-76558000D01*
G75*
G02*
X73281000Y-76408000I150000J0D01*
G01*
X74931000Y-76408000D01*
G75*
G02*
X75081000Y-76558000I0J-150000D01*
G01*
G37*
G36*
G01*
X75081000Y-77828000D02*
X75081000Y-78128000D01*
G75*
G02*
X74931000Y-78278000I-150000J0D01*
G01*
X73281000Y-78278000D01*
G75*
G02*
X73131000Y-78128000I0J150000D01*
G01*
X73131000Y-77828000D01*
G75*
G02*
X73281000Y-77678000I150000J0D01*
G01*
X74931000Y-77678000D01*
G75*
G02*
X75081000Y-77828000I0J-150000D01*
G01*
G37*
G36*
G01*
X75081000Y-79098000D02*
X75081000Y-79398000D01*
G75*
G02*
X74931000Y-79548000I-150000J0D01*
G01*
X73281000Y-79548000D01*
G75*
G02*
X73131000Y-79398000I0J150000D01*
G01*
X73131000Y-79098000D01*
G75*
G02*
X73281000Y-78948000I150000J0D01*
G01*
X74931000Y-78948000D01*
G75*
G02*
X75081000Y-79098000I0J-150000D01*
G01*
G37*
M02*
