G04 #@! TF.GenerationSoftware,KiCad,Pcbnew,5.1.7-a382d34a8~87~ubuntu18.04.1*
G04 #@! TF.CreationDate,2021-01-18T08:48:31-08:00*
G04 #@! TF.ProjectId,ph_feather_wing,70685f66-6561-4746-9865-725f77696e67,rev?*
G04 #@! TF.SameCoordinates,Original*
G04 #@! TF.FileFunction,Legend,Bot*
G04 #@! TF.FilePolarity,Positive*
%FSLAX46Y46*%
G04 Gerber Fmt 4.6, Leading zero omitted, Abs format (unit mm)*
G04 Created by KiCad (PCBNEW 5.1.7-a382d34a8~87~ubuntu18.04.1) date 2021-01-18 08:48:31*
%MOMM*%
%LPD*%
G01*
G04 APERTURE LIST*
%ADD10C,0.203200*%
G04 APERTURE END LIST*
D10*
X75372685Y-74059142D02*
X76388685Y-74059142D01*
X75421066Y-74059142D02*
X75372685Y-74155904D01*
X75372685Y-74349428D01*
X75421066Y-74446190D01*
X75469447Y-74494571D01*
X75566209Y-74542952D01*
X75856495Y-74542952D01*
X75953257Y-74494571D01*
X76001638Y-74446190D01*
X76050019Y-74349428D01*
X76050019Y-74155904D01*
X76001638Y-74059142D01*
X76050019Y-74978380D02*
X75034019Y-74978380D01*
X75517828Y-74978380D02*
X75517828Y-75558952D01*
X76050019Y-75558952D02*
X75034019Y-75558952D01*
X75517828Y-77155523D02*
X75517828Y-76816857D01*
X76050019Y-76816857D02*
X75034019Y-76816857D01*
X75034019Y-77300666D01*
X76001638Y-78074761D02*
X76050019Y-77978000D01*
X76050019Y-77784476D01*
X76001638Y-77687714D01*
X75904876Y-77639333D01*
X75517828Y-77639333D01*
X75421066Y-77687714D01*
X75372685Y-77784476D01*
X75372685Y-77978000D01*
X75421066Y-78074761D01*
X75517828Y-78123142D01*
X75614590Y-78123142D01*
X75711352Y-77639333D01*
X76050019Y-78994000D02*
X75517828Y-78994000D01*
X75421066Y-78945619D01*
X75372685Y-78848857D01*
X75372685Y-78655333D01*
X75421066Y-78558571D01*
X76001638Y-78994000D02*
X76050019Y-78897238D01*
X76050019Y-78655333D01*
X76001638Y-78558571D01*
X75904876Y-78510190D01*
X75808114Y-78510190D01*
X75711352Y-78558571D01*
X75662971Y-78655333D01*
X75662971Y-78897238D01*
X75614590Y-78994000D01*
X75372685Y-79332666D02*
X75372685Y-79719714D01*
X75034019Y-79477809D02*
X75904876Y-79477809D01*
X76001638Y-79526190D01*
X76050019Y-79622952D01*
X76050019Y-79719714D01*
X76050019Y-80058380D02*
X75034019Y-80058380D01*
X76050019Y-80493809D02*
X75517828Y-80493809D01*
X75421066Y-80445428D01*
X75372685Y-80348666D01*
X75372685Y-80203523D01*
X75421066Y-80106761D01*
X75469447Y-80058380D01*
X76001638Y-81364666D02*
X76050019Y-81267904D01*
X76050019Y-81074380D01*
X76001638Y-80977619D01*
X75904876Y-80929238D01*
X75517828Y-80929238D01*
X75421066Y-80977619D01*
X75372685Y-81074380D01*
X75372685Y-81267904D01*
X75421066Y-81364666D01*
X75517828Y-81413047D01*
X75614590Y-81413047D01*
X75711352Y-80929238D01*
X76050019Y-81848476D02*
X75372685Y-81848476D01*
X75566209Y-81848476D02*
X75469447Y-81896857D01*
X75421066Y-81945238D01*
X75372685Y-82042000D01*
X75372685Y-82138761D01*
X75034019Y-83154761D02*
X76050019Y-83396666D01*
X75324304Y-83590190D01*
X76050019Y-83783714D01*
X75034019Y-84025619D01*
X76050019Y-84412666D02*
X75372685Y-84412666D01*
X75034019Y-84412666D02*
X75082400Y-84364285D01*
X75130780Y-84412666D01*
X75082400Y-84461047D01*
X75034019Y-84412666D01*
X75130780Y-84412666D01*
X75372685Y-84896476D02*
X76050019Y-84896476D01*
X75469447Y-84896476D02*
X75421066Y-84944857D01*
X75372685Y-85041619D01*
X75372685Y-85186761D01*
X75421066Y-85283523D01*
X75517828Y-85331904D01*
X76050019Y-85331904D01*
X75372685Y-86251142D02*
X76195161Y-86251142D01*
X76291923Y-86202761D01*
X76340304Y-86154380D01*
X76388685Y-86057619D01*
X76388685Y-85912476D01*
X76340304Y-85815714D01*
X76001638Y-86251142D02*
X76050019Y-86154380D01*
X76050019Y-85960857D01*
X76001638Y-85864095D01*
X75953257Y-85815714D01*
X75856495Y-85767333D01*
X75566209Y-85767333D01*
X75469447Y-85815714D01*
X75421066Y-85864095D01*
X75372685Y-85960857D01*
X75372685Y-86154380D01*
X75421066Y-86251142D01*
X75034019Y-87363904D02*
X76050019Y-87702571D01*
X75034019Y-88041238D01*
X75034019Y-88573428D02*
X75034019Y-88670190D01*
X75082400Y-88766952D01*
X75130780Y-88815333D01*
X75227542Y-88863714D01*
X75421066Y-88912095D01*
X75662971Y-88912095D01*
X75856495Y-88863714D01*
X75953257Y-88815333D01*
X76001638Y-88766952D01*
X76050019Y-88670190D01*
X76050019Y-88573428D01*
X76001638Y-88476666D01*
X75953257Y-88428285D01*
X75856495Y-88379904D01*
X75662971Y-88331523D01*
X75421066Y-88331523D01*
X75227542Y-88379904D01*
X75130780Y-88428285D01*
X75082400Y-88476666D01*
X75034019Y-88573428D01*
X75953257Y-89347523D02*
X76001638Y-89395904D01*
X76050019Y-89347523D01*
X76001638Y-89299142D01*
X75953257Y-89347523D01*
X76050019Y-89347523D01*
X75130780Y-89782952D02*
X75082400Y-89831333D01*
X75034019Y-89928095D01*
X75034019Y-90170000D01*
X75082400Y-90266761D01*
X75130780Y-90315142D01*
X75227542Y-90363523D01*
X75324304Y-90363523D01*
X75469447Y-90315142D01*
X76050019Y-89734571D01*
X76050019Y-90363523D01*
X76050019Y-92153619D02*
X75566209Y-91814952D01*
X76050019Y-91573047D02*
X75034019Y-91573047D01*
X75034019Y-91960095D01*
X75082400Y-92056857D01*
X75130780Y-92105238D01*
X75227542Y-92153619D01*
X75372685Y-92153619D01*
X75469447Y-92105238D01*
X75517828Y-92056857D01*
X75566209Y-91960095D01*
X75566209Y-91573047D01*
X76050019Y-93121238D02*
X76050019Y-92540666D01*
X76050019Y-92830952D02*
X75034019Y-92830952D01*
X75179161Y-92734190D01*
X75275923Y-92637428D01*
X75324304Y-92540666D01*
X77099885Y-77228095D02*
X77777219Y-77421619D01*
X77293409Y-77615142D01*
X77777219Y-77808666D01*
X77099885Y-78002190D01*
X77099885Y-78292476D02*
X77777219Y-78486000D01*
X77293409Y-78679523D01*
X77777219Y-78873047D01*
X77099885Y-79066571D01*
X77099885Y-79356857D02*
X77777219Y-79550380D01*
X77293409Y-79743904D01*
X77777219Y-79937428D01*
X77099885Y-80130952D01*
X77680457Y-80518000D02*
X77728838Y-80566380D01*
X77777219Y-80518000D01*
X77728838Y-80469619D01*
X77680457Y-80518000D01*
X77777219Y-80518000D01*
X77777219Y-81001809D02*
X77099885Y-81001809D01*
X76761219Y-81001809D02*
X76809600Y-80953428D01*
X76857980Y-81001809D01*
X76809600Y-81050190D01*
X76761219Y-81001809D01*
X76857980Y-81001809D01*
X77777219Y-81630761D02*
X77728838Y-81534000D01*
X77680457Y-81485619D01*
X77583695Y-81437238D01*
X77293409Y-81437238D01*
X77196647Y-81485619D01*
X77148266Y-81534000D01*
X77099885Y-81630761D01*
X77099885Y-81775904D01*
X77148266Y-81872666D01*
X77196647Y-81921047D01*
X77293409Y-81969428D01*
X77583695Y-81969428D01*
X77680457Y-81921047D01*
X77728838Y-81872666D01*
X77777219Y-81775904D01*
X77777219Y-81630761D01*
X77777219Y-82404857D02*
X77099885Y-82404857D01*
X77293409Y-82404857D02*
X77196647Y-82453238D01*
X77148266Y-82501619D01*
X77099885Y-82598380D01*
X77099885Y-82695142D01*
X77777219Y-83178952D02*
X77728838Y-83082190D01*
X77680457Y-83033809D01*
X77583695Y-82985428D01*
X77293409Y-82985428D01*
X77196647Y-83033809D01*
X77148266Y-83082190D01*
X77099885Y-83178952D01*
X77099885Y-83324095D01*
X77148266Y-83420857D01*
X77196647Y-83469238D01*
X77293409Y-83517619D01*
X77583695Y-83517619D01*
X77680457Y-83469238D01*
X77728838Y-83420857D01*
X77777219Y-83324095D01*
X77777219Y-83178952D01*
X77777219Y-84388476D02*
X76761219Y-84388476D01*
X77728838Y-84388476D02*
X77777219Y-84291714D01*
X77777219Y-84098190D01*
X77728838Y-84001428D01*
X77680457Y-83953047D01*
X77583695Y-83904666D01*
X77293409Y-83904666D01*
X77196647Y-83953047D01*
X77148266Y-84001428D01*
X77099885Y-84098190D01*
X77099885Y-84291714D01*
X77148266Y-84388476D01*
X77728838Y-85259333D02*
X77777219Y-85162571D01*
X77777219Y-84969047D01*
X77728838Y-84872285D01*
X77632076Y-84823904D01*
X77245028Y-84823904D01*
X77148266Y-84872285D01*
X77099885Y-84969047D01*
X77099885Y-85162571D01*
X77148266Y-85259333D01*
X77245028Y-85307714D01*
X77341790Y-85307714D01*
X77438552Y-84823904D01*
X77777219Y-85888285D02*
X77728838Y-85791523D01*
X77680457Y-85743142D01*
X77583695Y-85694761D01*
X77293409Y-85694761D01*
X77196647Y-85743142D01*
X77148266Y-85791523D01*
X77099885Y-85888285D01*
X77099885Y-86033428D01*
X77148266Y-86130190D01*
X77196647Y-86178571D01*
X77293409Y-86226952D01*
X77583695Y-86226952D01*
X77680457Y-86178571D01*
X77728838Y-86130190D01*
X77777219Y-86033428D01*
X77777219Y-85888285D01*
X77680457Y-86662380D02*
X77728838Y-86710761D01*
X77777219Y-86662380D01*
X77728838Y-86614000D01*
X77680457Y-86662380D01*
X77777219Y-86662380D01*
X77728838Y-87581619D02*
X77777219Y-87484857D01*
X77777219Y-87291333D01*
X77728838Y-87194571D01*
X77680457Y-87146190D01*
X77583695Y-87097809D01*
X77293409Y-87097809D01*
X77196647Y-87146190D01*
X77148266Y-87194571D01*
X77099885Y-87291333D01*
X77099885Y-87484857D01*
X77148266Y-87581619D01*
X77777219Y-88162190D02*
X77728838Y-88065428D01*
X77680457Y-88017047D01*
X77583695Y-87968666D01*
X77293409Y-87968666D01*
X77196647Y-88017047D01*
X77148266Y-88065428D01*
X77099885Y-88162190D01*
X77099885Y-88307333D01*
X77148266Y-88404095D01*
X77196647Y-88452476D01*
X77293409Y-88500857D01*
X77583695Y-88500857D01*
X77680457Y-88452476D01*
X77728838Y-88404095D01*
X77777219Y-88307333D01*
X77777219Y-88162190D01*
X77777219Y-88936285D02*
X77099885Y-88936285D01*
X77196647Y-88936285D02*
X77148266Y-88984666D01*
X77099885Y-89081428D01*
X77099885Y-89226571D01*
X77148266Y-89323333D01*
X77245028Y-89371714D01*
X77777219Y-89371714D01*
X77245028Y-89371714D02*
X77148266Y-89420095D01*
X77099885Y-89516857D01*
X77099885Y-89662000D01*
X77148266Y-89758761D01*
X77245028Y-89807142D01*
X77777219Y-89807142D01*
X69813714Y-57561238D02*
X69668571Y-57609619D01*
X69426666Y-57609619D01*
X69329904Y-57561238D01*
X69281523Y-57512857D01*
X69233142Y-57416095D01*
X69233142Y-57319333D01*
X69281523Y-57222571D01*
X69329904Y-57174190D01*
X69426666Y-57125809D01*
X69620190Y-57077428D01*
X69716952Y-57029047D01*
X69765333Y-56980666D01*
X69813714Y-56883904D01*
X69813714Y-56787142D01*
X69765333Y-56690380D01*
X69716952Y-56642000D01*
X69620190Y-56593619D01*
X69378285Y-56593619D01*
X69233142Y-56642000D01*
X68797714Y-57609619D02*
X68797714Y-56593619D01*
X68555809Y-56593619D01*
X68410666Y-56642000D01*
X68313904Y-56738761D01*
X68265523Y-56835523D01*
X68217142Y-57029047D01*
X68217142Y-57174190D01*
X68265523Y-57367714D01*
X68313904Y-57464476D01*
X68410666Y-57561238D01*
X68555809Y-57609619D01*
X68797714Y-57609619D01*
X67830095Y-57319333D02*
X67346285Y-57319333D01*
X67926857Y-57609619D02*
X67588190Y-56593619D01*
X67249523Y-57609619D01*
X69789523Y-60101238D02*
X69644380Y-60149619D01*
X69402476Y-60149619D01*
X69305714Y-60101238D01*
X69257333Y-60052857D01*
X69208952Y-59956095D01*
X69208952Y-59859333D01*
X69257333Y-59762571D01*
X69305714Y-59714190D01*
X69402476Y-59665809D01*
X69596000Y-59617428D01*
X69692761Y-59569047D01*
X69741142Y-59520666D01*
X69789523Y-59423904D01*
X69789523Y-59327142D01*
X69741142Y-59230380D01*
X69692761Y-59182000D01*
X69596000Y-59133619D01*
X69354095Y-59133619D01*
X69208952Y-59182000D01*
X68192952Y-60052857D02*
X68241333Y-60101238D01*
X68386476Y-60149619D01*
X68483238Y-60149619D01*
X68628380Y-60101238D01*
X68725142Y-60004476D01*
X68773523Y-59907714D01*
X68821904Y-59714190D01*
X68821904Y-59569047D01*
X68773523Y-59375523D01*
X68725142Y-59278761D01*
X68628380Y-59182000D01*
X68483238Y-59133619D01*
X68386476Y-59133619D01*
X68241333Y-59182000D01*
X68192952Y-59230380D01*
X67273714Y-60149619D02*
X67757523Y-60149619D01*
X67757523Y-59133619D01*
X68821904Y-62816619D02*
X68821904Y-61800619D01*
X68580000Y-61800619D01*
X68434857Y-61849000D01*
X68338095Y-61945761D01*
X68289714Y-62042523D01*
X68241333Y-62236047D01*
X68241333Y-62381190D01*
X68289714Y-62574714D01*
X68338095Y-62671476D01*
X68434857Y-62768238D01*
X68580000Y-62816619D01*
X68821904Y-62816619D01*
X67322095Y-61800619D02*
X67805904Y-61800619D01*
X67854285Y-62284428D01*
X67805904Y-62236047D01*
X67709142Y-62187666D01*
X67467238Y-62187666D01*
X67370476Y-62236047D01*
X67322095Y-62284428D01*
X67273714Y-62381190D01*
X67273714Y-62623095D01*
X67322095Y-62719857D01*
X67370476Y-62768238D01*
X67467238Y-62816619D01*
X67709142Y-62816619D01*
X67805904Y-62768238D01*
X67854285Y-62719857D01*
X68821904Y-65229619D02*
X68821904Y-64213619D01*
X68580000Y-64213619D01*
X68434857Y-64262000D01*
X68338095Y-64358761D01*
X68289714Y-64455523D01*
X68241333Y-64649047D01*
X68241333Y-64794190D01*
X68289714Y-64987714D01*
X68338095Y-65084476D01*
X68434857Y-65181238D01*
X68580000Y-65229619D01*
X68821904Y-65229619D01*
X67370476Y-64213619D02*
X67564000Y-64213619D01*
X67660761Y-64262000D01*
X67709142Y-64310380D01*
X67805904Y-64455523D01*
X67854285Y-64649047D01*
X67854285Y-65036095D01*
X67805904Y-65132857D01*
X67757523Y-65181238D01*
X67660761Y-65229619D01*
X67467238Y-65229619D01*
X67370476Y-65181238D01*
X67322095Y-65132857D01*
X67273714Y-65036095D01*
X67273714Y-64794190D01*
X67322095Y-64697428D01*
X67370476Y-64649047D01*
X67467238Y-64600666D01*
X67660761Y-64600666D01*
X67757523Y-64649047D01*
X67805904Y-64697428D01*
X67854285Y-64794190D01*
X68821904Y-67769619D02*
X68821904Y-66753619D01*
X68580000Y-66753619D01*
X68434857Y-66802000D01*
X68338095Y-66898761D01*
X68289714Y-66995523D01*
X68241333Y-67189047D01*
X68241333Y-67334190D01*
X68289714Y-67527714D01*
X68338095Y-67624476D01*
X68434857Y-67721238D01*
X68580000Y-67769619D01*
X68821904Y-67769619D01*
X67757523Y-67769619D02*
X67564000Y-67769619D01*
X67467238Y-67721238D01*
X67418857Y-67672857D01*
X67322095Y-67527714D01*
X67273714Y-67334190D01*
X67273714Y-66947142D01*
X67322095Y-66850380D01*
X67370476Y-66802000D01*
X67467238Y-66753619D01*
X67660761Y-66753619D01*
X67757523Y-66802000D01*
X67805904Y-66850380D01*
X67854285Y-66947142D01*
X67854285Y-67189047D01*
X67805904Y-67285809D01*
X67757523Y-67334190D01*
X67660761Y-67382571D01*
X67467238Y-67382571D01*
X67370476Y-67334190D01*
X67322095Y-67285809D01*
X67273714Y-67189047D01*
X69813714Y-70309619D02*
X69813714Y-69293619D01*
X69571809Y-69293619D01*
X69426666Y-69342000D01*
X69329904Y-69438761D01*
X69281523Y-69535523D01*
X69233142Y-69729047D01*
X69233142Y-69874190D01*
X69281523Y-70067714D01*
X69329904Y-70164476D01*
X69426666Y-70261238D01*
X69571809Y-70309619D01*
X69813714Y-70309619D01*
X68265523Y-70309619D02*
X68846095Y-70309619D01*
X68555809Y-70309619D02*
X68555809Y-69293619D01*
X68652571Y-69438761D01*
X68749333Y-69535523D01*
X68846095Y-69583904D01*
X67636571Y-69293619D02*
X67539809Y-69293619D01*
X67443047Y-69342000D01*
X67394666Y-69390380D01*
X67346285Y-69487142D01*
X67297904Y-69680666D01*
X67297904Y-69922571D01*
X67346285Y-70116095D01*
X67394666Y-70212857D01*
X67443047Y-70261238D01*
X67539809Y-70309619D01*
X67636571Y-70309619D01*
X67733333Y-70261238D01*
X67781714Y-70212857D01*
X67830095Y-70116095D01*
X67878476Y-69922571D01*
X67878476Y-69680666D01*
X67830095Y-69487142D01*
X67781714Y-69390380D01*
X67733333Y-69342000D01*
X67636571Y-69293619D01*
X69813714Y-72849619D02*
X69813714Y-71833619D01*
X69571809Y-71833619D01*
X69426666Y-71882000D01*
X69329904Y-71978761D01*
X69281523Y-72075523D01*
X69233142Y-72269047D01*
X69233142Y-72414190D01*
X69281523Y-72607714D01*
X69329904Y-72704476D01*
X69426666Y-72801238D01*
X69571809Y-72849619D01*
X69813714Y-72849619D01*
X68265523Y-72849619D02*
X68846095Y-72849619D01*
X68555809Y-72849619D02*
X68555809Y-71833619D01*
X68652571Y-71978761D01*
X68749333Y-72075523D01*
X68846095Y-72123904D01*
X67297904Y-72849619D02*
X67878476Y-72849619D01*
X67588190Y-72849619D02*
X67588190Y-71833619D01*
X67684952Y-71978761D01*
X67781714Y-72075523D01*
X67878476Y-72123904D01*
X69813714Y-75643619D02*
X69813714Y-74627619D01*
X69571809Y-74627619D01*
X69426666Y-74676000D01*
X69329904Y-74772761D01*
X69281523Y-74869523D01*
X69233142Y-75063047D01*
X69233142Y-75208190D01*
X69281523Y-75401714D01*
X69329904Y-75498476D01*
X69426666Y-75595238D01*
X69571809Y-75643619D01*
X69813714Y-75643619D01*
X68265523Y-75643619D02*
X68846095Y-75643619D01*
X68555809Y-75643619D02*
X68555809Y-74627619D01*
X68652571Y-74772761D01*
X68749333Y-74869523D01*
X68846095Y-74917904D01*
X67878476Y-74724380D02*
X67830095Y-74676000D01*
X67733333Y-74627619D01*
X67491428Y-74627619D01*
X67394666Y-74676000D01*
X67346285Y-74724380D01*
X67297904Y-74821142D01*
X67297904Y-74917904D01*
X67346285Y-75063047D01*
X67926857Y-75643619D01*
X67297904Y-75643619D01*
X69813714Y-77929619D02*
X69813714Y-76913619D01*
X69571809Y-76913619D01*
X69426666Y-76962000D01*
X69329904Y-77058761D01*
X69281523Y-77155523D01*
X69233142Y-77349047D01*
X69233142Y-77494190D01*
X69281523Y-77687714D01*
X69329904Y-77784476D01*
X69426666Y-77881238D01*
X69571809Y-77929619D01*
X69813714Y-77929619D01*
X68265523Y-77929619D02*
X68846095Y-77929619D01*
X68555809Y-77929619D02*
X68555809Y-76913619D01*
X68652571Y-77058761D01*
X68749333Y-77155523D01*
X68846095Y-77203904D01*
X67926857Y-76913619D02*
X67297904Y-76913619D01*
X67636571Y-77300666D01*
X67491428Y-77300666D01*
X67394666Y-77349047D01*
X67346285Y-77397428D01*
X67297904Y-77494190D01*
X67297904Y-77736095D01*
X67346285Y-77832857D01*
X67394666Y-77881238D01*
X67491428Y-77929619D01*
X67781714Y-77929619D01*
X67878476Y-77881238D01*
X67926857Y-77832857D01*
X69862095Y-79453619D02*
X69862095Y-80276095D01*
X69813714Y-80372857D01*
X69765333Y-80421238D01*
X69668571Y-80469619D01*
X69475047Y-80469619D01*
X69378285Y-80421238D01*
X69329904Y-80372857D01*
X69281523Y-80276095D01*
X69281523Y-79453619D01*
X68846095Y-80421238D02*
X68700952Y-80469619D01*
X68459047Y-80469619D01*
X68362285Y-80421238D01*
X68313904Y-80372857D01*
X68265523Y-80276095D01*
X68265523Y-80179333D01*
X68313904Y-80082571D01*
X68362285Y-80034190D01*
X68459047Y-79985809D01*
X68652571Y-79937428D01*
X68749333Y-79889047D01*
X68797714Y-79840666D01*
X68846095Y-79743904D01*
X68846095Y-79647142D01*
X68797714Y-79550380D01*
X68749333Y-79502000D01*
X68652571Y-79453619D01*
X68410666Y-79453619D01*
X68265523Y-79502000D01*
X67491428Y-79937428D02*
X67346285Y-79985809D01*
X67297904Y-80034190D01*
X67249523Y-80130952D01*
X67249523Y-80276095D01*
X67297904Y-80372857D01*
X67346285Y-80421238D01*
X67443047Y-80469619D01*
X67830095Y-80469619D01*
X67830095Y-79453619D01*
X67491428Y-79453619D01*
X67394666Y-79502000D01*
X67346285Y-79550380D01*
X67297904Y-79647142D01*
X67297904Y-79743904D01*
X67346285Y-79840666D01*
X67394666Y-79889047D01*
X67491428Y-79937428D01*
X67830095Y-79937428D01*
X68821904Y-82477428D02*
X68483238Y-82477428D01*
X68338095Y-83009619D02*
X68821904Y-83009619D01*
X68821904Y-81993619D01*
X68338095Y-81993619D01*
X67902666Y-83009619D02*
X67902666Y-81993619D01*
X67322095Y-83009619D01*
X67322095Y-81993619D01*
X69329904Y-85017428D02*
X69184761Y-85065809D01*
X69136380Y-85114190D01*
X69088000Y-85210952D01*
X69088000Y-85356095D01*
X69136380Y-85452857D01*
X69184761Y-85501238D01*
X69281523Y-85549619D01*
X69668571Y-85549619D01*
X69668571Y-84533619D01*
X69329904Y-84533619D01*
X69233142Y-84582000D01*
X69184761Y-84630380D01*
X69136380Y-84727142D01*
X69136380Y-84823904D01*
X69184761Y-84920666D01*
X69233142Y-84969047D01*
X69329904Y-85017428D01*
X69668571Y-85017428D01*
X68700952Y-85259333D02*
X68217142Y-85259333D01*
X68797714Y-85549619D02*
X68459047Y-84533619D01*
X68120380Y-85549619D01*
X67926857Y-84533619D02*
X67346285Y-84533619D01*
X67636571Y-85549619D02*
X67636571Y-84533619D01*
X84690857Y-57077428D02*
X84545714Y-57125809D01*
X84497333Y-57174190D01*
X84448952Y-57270952D01*
X84448952Y-57416095D01*
X84497333Y-57512857D01*
X84545714Y-57561238D01*
X84642476Y-57609619D01*
X85029523Y-57609619D01*
X85029523Y-56593619D01*
X84690857Y-56593619D01*
X84594095Y-56642000D01*
X84545714Y-56690380D01*
X84497333Y-56787142D01*
X84497333Y-56883904D01*
X84545714Y-56980666D01*
X84594095Y-57029047D01*
X84690857Y-57077428D01*
X85029523Y-57077428D01*
X84061904Y-57561238D02*
X83916761Y-57609619D01*
X83674857Y-57609619D01*
X83578095Y-57561238D01*
X83529714Y-57512857D01*
X83481333Y-57416095D01*
X83481333Y-57319333D01*
X83529714Y-57222571D01*
X83578095Y-57174190D01*
X83674857Y-57125809D01*
X83868380Y-57077428D01*
X83965142Y-57029047D01*
X84013523Y-56980666D01*
X84061904Y-56883904D01*
X84061904Y-56787142D01*
X84013523Y-56690380D01*
X83965142Y-56642000D01*
X83868380Y-56593619D01*
X83626476Y-56593619D01*
X83481333Y-56642000D01*
X83045904Y-57609619D02*
X83045904Y-56593619D01*
X82658857Y-56593619D01*
X82562095Y-56642000D01*
X82513714Y-56690380D01*
X82465333Y-56787142D01*
X82465333Y-56932285D01*
X82513714Y-57029047D01*
X82562095Y-57077428D01*
X82658857Y-57125809D01*
X83045904Y-57125809D01*
X82029904Y-57077428D02*
X81691238Y-57077428D01*
X81546095Y-57609619D02*
X82029904Y-57609619D01*
X82029904Y-56593619D01*
X81546095Y-56593619D01*
X80530095Y-57512857D02*
X80578476Y-57561238D01*
X80723619Y-57609619D01*
X80820380Y-57609619D01*
X80965523Y-57561238D01*
X81062285Y-57464476D01*
X81110666Y-57367714D01*
X81159047Y-57174190D01*
X81159047Y-57029047D01*
X81110666Y-56835523D01*
X81062285Y-56738761D01*
X80965523Y-56642000D01*
X80820380Y-56593619D01*
X80723619Y-56593619D01*
X80578476Y-56642000D01*
X80530095Y-56690380D01*
X85102095Y-59133619D02*
X84521523Y-59133619D01*
X84811809Y-60149619D02*
X84811809Y-59133619D01*
X84279619Y-59133619D02*
X83602285Y-60149619D01*
X83602285Y-59133619D02*
X84279619Y-60149619D01*
X84497333Y-62943619D02*
X84836000Y-62459809D01*
X85077904Y-62943619D02*
X85077904Y-61927619D01*
X84690857Y-61927619D01*
X84594095Y-61976000D01*
X84545714Y-62024380D01*
X84497333Y-62121142D01*
X84497333Y-62266285D01*
X84545714Y-62363047D01*
X84594095Y-62411428D01*
X84690857Y-62459809D01*
X85077904Y-62459809D01*
X84158666Y-61927619D02*
X83481333Y-62943619D01*
X83481333Y-61927619D02*
X84158666Y-62943619D01*
X85035571Y-65229619D02*
X85035571Y-64213619D01*
X84696904Y-64939333D01*
X84358238Y-64213619D01*
X84358238Y-65229619D01*
X83874428Y-65229619D02*
X83874428Y-64213619D01*
X85071857Y-67896619D02*
X85071857Y-66880619D01*
X84733190Y-67606333D01*
X84394523Y-66880619D01*
X84394523Y-67896619D01*
X83717190Y-66880619D02*
X83523666Y-66880619D01*
X83426904Y-66929000D01*
X83330142Y-67025761D01*
X83281761Y-67219285D01*
X83281761Y-67557952D01*
X83330142Y-67751476D01*
X83426904Y-67848238D01*
X83523666Y-67896619D01*
X83717190Y-67896619D01*
X83813952Y-67848238D01*
X83910714Y-67751476D01*
X83959095Y-67557952D01*
X83959095Y-67219285D01*
X83910714Y-67025761D01*
X83813952Y-66929000D01*
X83717190Y-66880619D01*
X85126285Y-70261238D02*
X84981142Y-70309619D01*
X84739238Y-70309619D01*
X84642476Y-70261238D01*
X84594095Y-70212857D01*
X84545714Y-70116095D01*
X84545714Y-70019333D01*
X84594095Y-69922571D01*
X84642476Y-69874190D01*
X84739238Y-69825809D01*
X84932761Y-69777428D01*
X85029523Y-69729047D01*
X85077904Y-69680666D01*
X85126285Y-69583904D01*
X85126285Y-69487142D01*
X85077904Y-69390380D01*
X85029523Y-69342000D01*
X84932761Y-69293619D01*
X84690857Y-69293619D01*
X84545714Y-69342000D01*
X83529714Y-70212857D02*
X83578095Y-70261238D01*
X83723238Y-70309619D01*
X83820000Y-70309619D01*
X83965142Y-70261238D01*
X84061904Y-70164476D01*
X84110285Y-70067714D01*
X84158666Y-69874190D01*
X84158666Y-69729047D01*
X84110285Y-69535523D01*
X84061904Y-69438761D01*
X83965142Y-69342000D01*
X83820000Y-69293619D01*
X83723238Y-69293619D01*
X83578095Y-69342000D01*
X83529714Y-69390380D01*
X83094285Y-70309619D02*
X83094285Y-69293619D01*
X82513714Y-70309619D02*
X82949142Y-69729047D01*
X82513714Y-69293619D02*
X83094285Y-69874190D01*
X84799714Y-72559333D02*
X84315904Y-72559333D01*
X84896476Y-72849619D02*
X84557809Y-71833619D01*
X84219142Y-72849619D01*
X83396666Y-71833619D02*
X83880476Y-71833619D01*
X83928857Y-72317428D01*
X83880476Y-72269047D01*
X83783714Y-72220666D01*
X83541809Y-72220666D01*
X83445047Y-72269047D01*
X83396666Y-72317428D01*
X83348285Y-72414190D01*
X83348285Y-72656095D01*
X83396666Y-72752857D01*
X83445047Y-72801238D01*
X83541809Y-72849619D01*
X83783714Y-72849619D01*
X83880476Y-72801238D01*
X83928857Y-72752857D01*
X84799714Y-75099333D02*
X84315904Y-75099333D01*
X84896476Y-75389619D02*
X84557809Y-74373619D01*
X84219142Y-75389619D01*
X83445047Y-74712285D02*
X83445047Y-75389619D01*
X83686952Y-74325238D02*
X83928857Y-75050952D01*
X83299904Y-75050952D01*
X84799714Y-77639333D02*
X84315904Y-77639333D01*
X84896476Y-77929619D02*
X84557809Y-76913619D01*
X84219142Y-77929619D01*
X83977238Y-76913619D02*
X83348285Y-76913619D01*
X83686952Y-77300666D01*
X83541809Y-77300666D01*
X83445047Y-77349047D01*
X83396666Y-77397428D01*
X83348285Y-77494190D01*
X83348285Y-77736095D01*
X83396666Y-77832857D01*
X83445047Y-77881238D01*
X83541809Y-77929619D01*
X83832095Y-77929619D01*
X83928857Y-77881238D01*
X83977238Y-77832857D01*
X84799714Y-80179333D02*
X84315904Y-80179333D01*
X84896476Y-80469619D02*
X84557809Y-79453619D01*
X84219142Y-80469619D01*
X83928857Y-79550380D02*
X83880476Y-79502000D01*
X83783714Y-79453619D01*
X83541809Y-79453619D01*
X83445047Y-79502000D01*
X83396666Y-79550380D01*
X83348285Y-79647142D01*
X83348285Y-79743904D01*
X83396666Y-79889047D01*
X83977238Y-80469619D01*
X83348285Y-80469619D01*
X84799714Y-82719333D02*
X84315904Y-82719333D01*
X84896476Y-83009619D02*
X84557809Y-81993619D01*
X84219142Y-83009619D01*
X83348285Y-83009619D02*
X83928857Y-83009619D01*
X83638571Y-83009619D02*
X83638571Y-81993619D01*
X83735333Y-82138761D01*
X83832095Y-82235523D01*
X83928857Y-82283904D01*
X84799714Y-85259333D02*
X84315904Y-85259333D01*
X84896476Y-85549619D02*
X84557809Y-84533619D01*
X84219142Y-85549619D01*
X83686952Y-84533619D02*
X83590190Y-84533619D01*
X83493428Y-84582000D01*
X83445047Y-84630380D01*
X83396666Y-84727142D01*
X83348285Y-84920666D01*
X83348285Y-85162571D01*
X83396666Y-85356095D01*
X83445047Y-85452857D01*
X83493428Y-85501238D01*
X83590190Y-85549619D01*
X83686952Y-85549619D01*
X83783714Y-85501238D01*
X83832095Y-85452857D01*
X83880476Y-85356095D01*
X83928857Y-85162571D01*
X83928857Y-84920666D01*
X83880476Y-84727142D01*
X83832095Y-84630380D01*
X83783714Y-84582000D01*
X83686952Y-84533619D01*
X84340095Y-87122000D02*
X84436857Y-87073619D01*
X84582000Y-87073619D01*
X84727142Y-87122000D01*
X84823904Y-87218761D01*
X84872285Y-87315523D01*
X84920666Y-87509047D01*
X84920666Y-87654190D01*
X84872285Y-87847714D01*
X84823904Y-87944476D01*
X84727142Y-88041238D01*
X84582000Y-88089619D01*
X84485238Y-88089619D01*
X84340095Y-88041238D01*
X84291714Y-87992857D01*
X84291714Y-87654190D01*
X84485238Y-87654190D01*
X83856285Y-88089619D02*
X83856285Y-87073619D01*
X83275714Y-88089619D01*
X83275714Y-87073619D01*
X82791904Y-88089619D02*
X82791904Y-87073619D01*
X82550000Y-87073619D01*
X82404857Y-87122000D01*
X82308095Y-87218761D01*
X82259714Y-87315523D01*
X82211333Y-87509047D01*
X82211333Y-87654190D01*
X82259714Y-87847714D01*
X82308095Y-87944476D01*
X82404857Y-88041238D01*
X82550000Y-88089619D01*
X82791904Y-88089619D01*
X84956952Y-90339333D02*
X84473142Y-90339333D01*
X85053714Y-90629619D02*
X84715047Y-89613619D01*
X84376380Y-90629619D01*
X83457142Y-90629619D02*
X83795809Y-90145809D01*
X84037714Y-90629619D02*
X84037714Y-89613619D01*
X83650666Y-89613619D01*
X83553904Y-89662000D01*
X83505523Y-89710380D01*
X83457142Y-89807142D01*
X83457142Y-89952285D01*
X83505523Y-90049047D01*
X83553904Y-90097428D01*
X83650666Y-90145809D01*
X84037714Y-90145809D01*
X83021714Y-90097428D02*
X82683047Y-90097428D01*
X82537904Y-90629619D02*
X83021714Y-90629619D01*
X83021714Y-89613619D01*
X82537904Y-89613619D01*
X81763809Y-90097428D02*
X82102476Y-90097428D01*
X82102476Y-90629619D02*
X82102476Y-89613619D01*
X81618666Y-89613619D01*
X84848095Y-92153619D02*
X84219142Y-92153619D01*
X84557809Y-92540666D01*
X84412666Y-92540666D01*
X84315904Y-92589047D01*
X84267523Y-92637428D01*
X84219142Y-92734190D01*
X84219142Y-92976095D01*
X84267523Y-93072857D01*
X84315904Y-93121238D01*
X84412666Y-93169619D01*
X84702952Y-93169619D01*
X84799714Y-93121238D01*
X84848095Y-93072857D01*
X83928857Y-92153619D02*
X83590190Y-93169619D01*
X83251523Y-92153619D01*
X84376380Y-95709619D02*
X84715047Y-95225809D01*
X84956952Y-95709619D02*
X84956952Y-94693619D01*
X84569904Y-94693619D01*
X84473142Y-94742000D01*
X84424761Y-94790380D01*
X84376380Y-94887142D01*
X84376380Y-95032285D01*
X84424761Y-95129047D01*
X84473142Y-95177428D01*
X84569904Y-95225809D01*
X84956952Y-95225809D01*
X83989333Y-95661238D02*
X83844190Y-95709619D01*
X83602285Y-95709619D01*
X83505523Y-95661238D01*
X83457142Y-95612857D01*
X83408761Y-95516095D01*
X83408761Y-95419333D01*
X83457142Y-95322571D01*
X83505523Y-95274190D01*
X83602285Y-95225809D01*
X83795809Y-95177428D01*
X83892571Y-95129047D01*
X83940952Y-95080666D01*
X83989333Y-94983904D01*
X83989333Y-94887142D01*
X83940952Y-94790380D01*
X83892571Y-94742000D01*
X83795809Y-94693619D01*
X83553904Y-94693619D01*
X83408761Y-94742000D01*
X83118476Y-94693619D02*
X82537904Y-94693619D01*
X82828190Y-95709619D02*
X82828190Y-94693619D01*
M02*
